<?xml version="1.0" encoding="UTF-8" standalone="no"?>
<!-- Created with Inkscape (http://www.inkscape.org/) -->

<svg
   width="2000mm"
   height="2000mm"
   viewBox="0 0 2000 2000"
   version="1.1"
   id="svg1"
   inkscape:version="1.4.2 (ebf0e940, 2025-05-08)"
   sodipodi:docname="fake-map.svg"
   xml:space="preserve"
   xmlns:inkscape="http://www.inkscape.org/namespaces/inkscape"
   xmlns:sodipodi="http://sodipodi.sourceforge.net/DTD/sodipodi-0.dtd"
   xmlns="http://www.w3.org/2000/svg"
   xmlns:svg="http://www.w3.org/2000/svg"><sodipodi:namedview
     id="namedview1"
     pagecolor="#ffffff"
     bordercolor="#000000"
     borderopacity="0.25"
     inkscape:showpageshadow="2"
     inkscape:pageopacity="0.0"
     inkscape:pagecheckerboard="0"
     inkscape:deskcolor="#d1d1d1"
     inkscape:document-units="mm"
     inkscape:zoom="0.057221137"
     inkscape:cx="2656.3611"
     inkscape:cy="2254.4117"
     inkscape:window-width="1568"
     inkscape:window-height="995"
     inkscape:window-x="0"
     inkscape:window-y="38"
     inkscape:window-maximized="0"
     inkscape:current-layer="layer1"><sodipodi:guide
       position="0,2000"
       orientation="0,7559.0551"
       id="guide1"
       inkscape:locked="false" /><sodipodi:guide
       position="2000,2000"
       orientation="7559.0551,0"
       id="guide2"
       inkscape:locked="false" /><sodipodi:guide
       position="2000,0"
       orientation="0,-7559.0551"
       id="guide3"
       inkscape:locked="false" /><sodipodi:guide
       position="0,0"
       orientation="-7559.0551,0"
       id="guide4"
       inkscape:locked="false" /></sodipodi:namedview><defs
     id="defs1" /><g
     inkscape:label="Layer 1"
     inkscape:groupmode="layer"
     id="layer1"><rect
       style="fill:#b39ddb;stroke-width:0.264583;fill-opacity:0.81176472"
       id="rect1"
       width="2000"
       height="2000"
       x="0.024198351"
       y="-0.022123167" /><path
       style="fill:#5e35b1;fill-opacity:0.81176472;stroke-width:0.264583"
       d="m -14.143236,685.94694 180.326256,33.5902 183.86207,21.21485 219.22018,-12.37533 139.66444,-49.50132 210.38065,44.19762 136.12864,-42.42972 60.1087,-53.03713 -60.1087,-95.46686 19.4469,-146.73606 L 979.41909,238.66711 982.95491,93.69894 933.45359,-8.8395227 -8.8395227,-3.5358091 Z"
       id="path4" /><path
       style="fill:#5e35b1;fill-opacity:0.811765;stroke-width:0.264583"
       d="M -10.000778,1997.6554 V 920.0716 l 217.516928,-12.50098 125.00972,7.50059 212.51653,-32.50253 110.00856,-47.50371 55.00428,-32.50253 220.01713,10.0008 145.01133,-15.00119 57.5044,72.50565 15.0012,52.50408 -25.0019,10.0008 -27.5022,-7.5006 -37.5029,2.50021 -5.0004,25.00193 v 30.00235 l 30.0023,20.00153 h 50.0039 l 40.0031,-12.50096 55.0043,72.50566 22.5018,42.5033 10.0008,92.5072 7.5005,87.5068 -25.0019,20.0016 h -37.5029 l -17.5014,-20.0016 7.5006,-40.0031 v -47.5037 l -57.5045,-100.0078 -57.5044,-25.0019 -35.0028,-2.5002 h -40.0031 l -5.0004,30.0023 -140.01087,60.0047 -2.50021,127.5099 -117.50913,20.0015 H 647.5504 l -80.00625,-90.0069 10.00078,-77.5061 50.00389,-60.0046 60.00467,-62.5049 5.00039,-25.00195 -25.00194,-42.50333 -152.51186,37.50294 -177.51382,35.00274 -180.014,12.5009 -100.007785,32.5026 55.004275,272.5212 107.50837,172.5134 110.00857,212.5165 25.00193,197.5154 2.50021,92.5072 z"
       id="path5" /><path
       style="fill:#5e35b1;fill-opacity:0.811765;stroke-width:0.264583"
       d="m 355.02762,1112.5866 -127.50992,-2.5002 -27.50213,22.5017 -12.50098,115.009 147.51149,200.0156 50.00389,82.5064 145.01127,-92.5072 -40.00312,-135.0105 7.50059,-107.5084 32.50253,-90.007 12.50098,-45.0035 -137.5107,37.5029 z"
       id="path6" /><path
       style="fill:#5e35b1;fill-opacity:0.811765;stroke-width:0.264583"
       d="m 975.07588,752.55857 107.50832,-40.00312 -2.5001,45.00351 z"
       id="path7" /><path
       style="fill:#5e35b1;fill-opacity:0.811765;stroke-width:0.264583"
       d="m 1030.0802,-25.001945 45.0035,182.514205 10.0007,150.01167 65.0051,77.50604 210.0163,-60.00467 247.5193,-70.00546 35.0027,-67.50525 12.501,-77.50603 -30.0023,-82.506419 -40.0032,-42.503308 z"
       id="path8" /><path
       style="fill:#5e35b1;fill-opacity:0.811765;stroke-width:0.264583"
       d="m 560.04359,2007.6562 -30.00235,-125.0097 -40.00312,-237.5185 -65.00506,-47.5037 137.51071,-77.506 142.51109,202.5157 50.00389,197.5154 -2.50018,95.0074 z"
       id="path9" /><path
       style="fill:#5e35b1;fill-opacity:0.811765;stroke-width:0.264583"
       d="m 1112.5866,1255.0977 -20.0016,-67.5053 -77.506,-17.5014 -62.50488,62.5049 5.00039,125.0097 17.50137,132.5104 147.51152,35.0027 100.0077,-62.5049 -35.0027,-110.0085 -95.0074,5.0003 z"
       id="path10" /><path
       style="fill:#5e35b1;fill-opacity:0.811765;stroke-width:0.264583"
       d="m 1690.1315,32.50253 20.0016,107.50836 -47.5037,175.01361 -257.5201,92.50722 -200.0155,35.00271 -15.0012,160.01246 110.0086,82.50642 177.5138,65.00506 310.0241,-15.00116 270.021,-45.00351 -10.0008,-720.056034 -372.529,7.500583 2.5003,37.502918 z"
       id="path11" /><path
       style="fill:#5e35b1;fill-opacity:0.811765;stroke-width:0.264583"
       d="m 817.56363,1355.1054 -170.01323,15.0012 35.0027,162.5127 190.01481,180.014 117.50913,212.5165 -2.50018,80.0062 297.52314,20.0016 v -337.5263 l -320.0249,-47.5037 -25.00196,-105.0081 -72.50562,-30.0024 7.50057,-52.5041 22.50175,-65.005 2.50021,-50.0039 -72.50565,95.0074 z"
       id="path12" /><path
       style="fill:#5e35b1;fill-opacity:0.811765;stroke-width:0.264583"
       d="m 1215.0946,685.05331 -65.0051,-30.00235 -27.5021,37.50292 v 55.00428 l 57.5044,32.50255 95.0074,10.00078 -15.0011,112.50874 -20.0016,87.50681 -20.0016,-55.00428 -15.0011,67.50524 62.5048,42.5033 52.5041,-162.51262 -20.0015,-82.50642 57.5044,-5.00039 -95.0074,-37.50291 v -57.50449 z"
       id="path13" /><path
       style="fill:#5e35b1;fill-opacity:0.811765;stroke-width:0.264583"
       d="m 2055.1599,742.55777 -367.5286,65.00506 -267.5208,-2.50018 -37.5029,112.50874 -27.5022,195.01521 97.5076,52.5041 -72.5056,127.5099 255.0198,20.0015 250.0195,-62.5048 -60.0047,-160.0125 h -195.0152 l -10.0007,-130.01008 202.5157,-47.50372 92.5072,75.00586 130.0101,97.50754 z"
       id="path14" /><path
       style="fill:#5e35b1;fill-opacity:0.811765;stroke-width:0.264583"
       d="m 1247.5971,1377.6072 20.0015,237.5185 75.0059,37.5029 120.0093,177.5138 102.508,30.0023 27.5021,135.0106 370.0288,7.5005 -30.0023,-137.5107 -140.0109,-2.5002 -2.5002,-180.014 -90.007,22.5018 -55.0043,62.5048 -67.5052,-22.5017 15.0011,-145.0113 -12.501,-115.0089 -95.0073,-22.5018 -75.0059,32.5025 -65.005,-20.0015 -5.0004,-97.5076 z"
       id="path15" /><path
       style="fill:#5e35b1;fill-opacity:0.811765;stroke-width:0.264583"
       d="m 1560.1214,1335.1039 70.0054,127.5099 17.5014,110.0086 77.506,-7.5006 v 75.0058 l 152.5119,10.0008 17.5014,145.0113 110.0085,32.5025 12.501,-650.0506 -52.5041,-102.5079 -75.0058,-47.5037 -72.5057,-50.00394 h -80.0062 l -2.5002,42.50334 100.0078,42.5033 75.0058,55.0043 5.0004,200.0155 -7.5005,130.0102 27.5021,155.012 -87.5068,-25.0019 -72.5057,-5.0004 -2.5002,-132.5103 -57.5044,15.0011 z"
       id="path16" /><path
       style="fill:#5e35b1;fill-opacity:0.811765;stroke-width:0.264583"
       d="m 1840.1432,1350.105 -97.5076,2.5003 32.5025,72.5056 35.0027,105.0082 45.0036,-5.0004 z"
       id="path17" /><path
       style="fill:#4527a0;fill-opacity:0.81176472;stroke-width:0.264583"
       d="M 75.005837,75.005837 V 572.54454 L 310.02411,630.04903 H 452.5352 l 210.01636,-17.50137 42.5033,-27.50214 135.01052,32.50253 130.01011,-25.00193 V 470.03657 L 857.56672,412.53211 860.06693,187.51459 840.06538,47.503696 Z"
       id="path18" /><path
       style="fill:#4527a0;fill-opacity:0.811765;stroke-width:0.264583"
       d="m 1160.0903,37.502917 12.5009,152.511873 v 55.00427 l 170.0133,-17.50136 210.0163,-50.00389 V 70.005447 Z"
       id="path19" /><path
       style="fill:#4527a0;fill-opacity:0.811765;stroke-width:0.264583"
       d="m 1402.6091,517.54026 -67.5052,22.50175 27.5021,42.50333 320.0249,87.50681 217.517,-32.50253 25.0019,-557.543394 -65.0051,-7.500583 -30.0023,105.008167 -57.5045,127.50992 -55.0042,155.01207 -72.5057,27.50214 -225.0175,27.50214 z"
       id="path20" /><path
       style="fill:#4527a0;fill-opacity:0.811765;stroke-width:0.264583"
       d="m 1570.1222,907.57062 -92.5072,-2.50018 -17.5014,105.00816 v 50.0039 l 32.5025,15.0012 z"
       id="path21" /><path
       style="fill:#4527a0;fill-opacity:0.811765;stroke-width:0.264583"
       d="m 1560.1214,1160.0903 -52.5041,65.005 275.0214,-10.0007 v -45.0036 z"
       id="path22" /><path
       style="fill:#4527a0;fill-opacity:0.811765;stroke-width:0.264583"
       d="M 1522.6185,1550.1206 H 1387.608 l 10.0008,82.5064 22.5017,82.5065 65.0051,12.5009 37.5029,5.0004 z"
       id="path23" /><path
       style="fill:#4527a0;fill-opacity:0.811765;stroke-width:0.264583"
       d="m 755.05875,917.57139 v 125.00971 l -52.50407,50.0039 -22.50176,52.5041 32.50253,50.0039 40.00312,32.5025 17.50134,-100.0078 155.01207,-47.5036 45.00351,-85.00667 55.00431,5.00037 -7.5006,-107.50834 50.0039,-40.00312 -342.52667,2.5002 12.50096,65.00506 z"
       id="path24" /><path
       style="fill:#4527a0;fill-opacity:0.811765;stroke-width:0.264583"
       d="m 752.55857,1480.1152 45.00348,100.0077 157.51228,107.5084 120.00937,167.5131 20.0015,130.0101 107.5084,-5.0004 -2.5002,-142.5111 -115.009,-87.5068 -90.00697,-72.5056 -60.00467,-12.501 z"
       id="path25" /><path
       style="fill:#4527a0;fill-opacity:0.811765;stroke-width:0.264583"
       d="m 1717.6337,1810.1408 -40.0031,65.0051 v 27.5021 l 225.0174,42.5034 v -35.0028 l -172.5134,-42.5033 z"
       id="path26" /><path
       style="fill:#4527a0;fill-opacity:0.811765;stroke-width:0.264583"
       d="m 255.01984,1220.0949 62.50487,110.0086 95.0074,112.5087 35.00271,-27.5021 -45.00351,-122.5095 35.00273,-142.5111 z"
       id="path27" /><path
       style="fill:#4527a0;fill-opacity:0.811765;stroke-width:0.264583"
       d="M 52.504085,1490.116 42.503306,1830.1424 V 1927.65 L 285.02218,1942.6512 272.5212,1805.1405 172.51342,1572.6224 Z"
       id="path28" /><path
       style="fill:#4527a0;fill-opacity:0.811765;stroke-width:0.264583"
       d="m 572.54454,1647.6282 7.50059,187.5146 47.50369,137.5107 70.00547,7.5006 -10.0008,-185.0144 z"
       id="path29" /><path
       style="fill:#4527a0;fill-opacity:0.811765;stroke-width:0.264583"
       d="m 185.0144,950.07392 127.50992,-2.50018 182.51421,-40.00312 v 25.00196 l -17.50136,17.50134 -185.0144,10.0008 -100.00779,27.50214 z"
       id="path30" /><path
       style="fill:#4527a0;fill-opacity:0.811765;stroke-width:0.264583"
       d="m 1865.1451,847.56595 122.5096,115.00895 2.5002,-130.01011 z"
       id="path31" /><path
       style="fill:#4527a0;fill-opacity:0.811765;stroke-width:0.264583"
       d="m 1792.6395,1385.1078 20.0016,107.5083"
       id="path32" /><path
       style="fill:#4527a0;fill-opacity:0.811765;stroke-width:0.264583"
       d="m 1050.0817,1392.6084 -5.0004,57.5044 95.0074,-2.5001 2.5002,-57.5045 z"
       id="path33" /><path
       style="fill:#4527a0;fill-opacity:0.811765;stroke-width:0.264583"
       d="m 1030.0802,1252.5975 -20.0016,97.5075 h 25.0019 v -127.5099 z"
       id="path34" /><path
       style="fill:#311b92;fill-opacity:0.81176472;stroke-width:0.264583"
       d="M 325.0253,255.01984 337.52626,490.03812 650.05058,377.52938 630.04903,200.01557 460.0358,190.01479 430.03345,282.52197 367.5286,202.51576 Z"
       id="path35" /><path
       style="fill:#311b92;fill-opacity:0.811765;stroke-width:0.264583"
       d="m 1615.1257,567.54415 10.0008,55.00429 182.5142,-30.00232 -30.0024,-70.00545 -65.005,22.50173 -27.5022,-30.00232 z"
       id="path36" /><path
       style="fill:#311b92;fill-opacity:0.811765;stroke-width:0.264583"
       d="m 1840.1432,330.02569 -5.0004,82.50642 v 57.50446 h 22.5018 z"
       id="path37" /><path
       style="fill:#311b92;fill-opacity:0.811765;stroke-width:0.264583"
       d="m 1320.1027,105.00817 -7.5006,30.00233 -12.5009,40.00312 h 22.5017 l 47.5037,-17.50136"
       id="path38" /><path
       style="fill:#311b92;fill-opacity:0.811765;stroke-width:0.264583"
       d="m 815.06342,915.07121 -7.50059,115.00899 -10.00078,40.0031 67.50527,-60.0047 v -50.00388 h 80.00621 v -60.00467 z"
       id="path39" /><path
       style="fill:#311b92;fill-opacity:0.811765;stroke-width:0.264583"
       d="m 620.04826,1795.1397 7.50056,112.5088 40.00312,-2.5003 v -62.5048 z"
       id="path40" /><path
       style="fill:#311b92;fill-opacity:0.811765;stroke-width:0.264583"
       d="m 107.50837,1702.6325 v 195.0152 l 120.00933,-35.0028 z"
       id="path41" /><path
       style="fill:#311b92;fill-opacity:0.811765;stroke-width:0.264583"
       d="m 1462.6138,1610.1253 -10.0008,47.5037 35.0028,-2.5002 z"
       id="path42" /><g
       id="g4"
       transform="translate(1355.9511,341.01071)"><g
         id="g3"><circle
           style="fill:#000000;stroke-width:0.252634"
           id="path1"
           cx="-293.61603"
           cy="423.08447"
           r="171.08334" /><circle
           style="fill:#673ab7;fill-opacity:1;stroke-width:0.216787"
           id="path1-9"
           cx="-292.43829"
           cy="424.72412"
           r="146.808" /><path
           style="fill:#000000;fill-opacity:1;stroke-width:0.264583"
           d="m -426.55239,529.43358 122.53268,158.36769 151.43187,-166.45948 -71.67005,43.92682 -48.55067,11.55967 -60.11037,4.62388 -25.4313,-11.5597 -39.30293,-41.61485 z"
           id="path2"
           sodipodi:nodetypes="ccccccccc" /><text
           xml:space="preserve"
           style="font-size:3.175px;text-align:start;writing-mode:lr-tb;direction:ltr;text-anchor:start;fill:#000000;fill-opacity:1;stroke-width:0.264583"
           x="-350.25845"
           y="434.64417"
           id="text2"><tspan
             sodipodi:role="line"
             id="tspan2"
             style="stroke-width:0.264583"
             x="-350.25845"
             y="434.64417">L</tspan></text></g><text
         xml:space="preserve"
         style="font-size:282.222px;text-align:start;writing-mode:lr-tb;direction:ltr;text-anchor:start;fill:#000000;fill-opacity:1;stroke-width:0.264583"
         x="-379.15765"
         y="519.02985"
         id="text3"><tspan
           sodipodi:role="line"
           id="tspan3"
           style="font-style:normal;font-variant:normal;font-weight:bold;font-stretch:normal;font-size:282.222px;font-family:sans-serif;-inkscape-font-specification:'sans-serif Bold';stroke-width:0.264583"
           x="-379.15765"
           y="519.02985">L</tspan></text></g></g></svg>
