<?xml version="1.0" encoding="UTF-8" standalone="no"?>
<!-- Created with Inkscape (http://www.inkscape.org/) -->

<svg
   width="2000mm"
   height="2000mm"
   viewBox="0 0 2000 2000"
   version="1.1"
   id="svg1"
   inkscape:version="1.4.2 (ebf0e940, 2025-05-08)"
   sodipodi:docname="fake-map.svg"
   xml:space="preserve"
   inkscape:export-filename="fake-map.png"
   inkscape:export-xdpi="12.7"
   inkscape:export-ydpi="12.7"
   xmlns:inkscape="http://www.inkscape.org/namespaces/inkscape"
   xmlns:sodipodi="http://sodipodi.sourceforge.net/DTD/sodipodi-0.dtd"
   xmlns="http://www.w3.org/2000/svg"
   xmlns:svg="http://www.w3.org/2000/svg"><sodipodi:namedview
     id="namedview1"
     pagecolor="#ffffff"
     bordercolor="#000000"
     borderopacity="0.25"
     inkscape:showpageshadow="2"
     inkscape:pageopacity="0.0"
     inkscape:pagecheckerboard="0"
     inkscape:deskcolor="#d1d1d1"
     inkscape:document-units="mm"
     inkscape:zoom="0.057871087"
     inkscape:cx="3153.561"
     inkscape:cy="3680.5944"
     inkscape:window-width="1568"
     inkscape:window-height="995"
     inkscape:window-x="0"
     inkscape:window-y="38"
     inkscape:window-maximized="0"
     inkscape:current-layer="map"><sodipodi:guide
       position="0,2000"
       orientation="0,7559.0551"
       id="guide1"
       inkscape:locked="false" /><sodipodi:guide
       position="2000,2000"
       orientation="7559.0551,0"
       id="guide2"
       inkscape:locked="false" /><sodipodi:guide
       position="2000,0"
       orientation="0,-7559.0551"
       id="guide3"
       inkscape:locked="false" /><sodipodi:guide
       position="0,0"
       orientation="-7559.0551,0"
       id="guide4"
       inkscape:locked="false" /></sodipodi:namedview><defs
     id="defs1"><style
       id="style1">
      .st0 {
        fill: #b39ddb;
      }

      .st1 {
        fill: #673ab7;
      }

      .st2 {
        fill: #512da8;
      }

      .st3 {
        fill: #7e57c2;
      }

      .st4 {
        fill: #9575cd;
      }

      .st5 {
        fill: #d1c4e9;
      }
    </style></defs><g
     inkscape:label="Layer 1"
     inkscape:groupmode="layer"
     id="layer1"><text
       xml:space="preserve"
       style="font-size:3.175px;text-align:start;writing-mode:lr-tb;direction:ltr;text-anchor:start;fill:#000000;fill-opacity:1;stroke-width:0.264583"
       x="-464.69931"
       y="771.03101"
       id="text2"><tspan
         sodipodi:role="line"
         id="tspan2"
         style="stroke-width:0.264583"
         x="-464.69931"
         y="771.03101">L</tspan></text><g
       id="background"
       transform="matrix(1.6351147,0,0,1.6351147,1.6312473,0.39549231)"><rect
         class="st2"
         width="1224"
         height="1224"
         id="rect1"
         x="0"
         y="0" /><path
         class="st4"
         d="m 71.19,40.66 c 1.86,-3.35 4.7,-8.47 10.31,-11.32 10.78,-5.48 18.4,4.23 39.98,5.66 16.03,1.06 24.87,-3.43 27.16,0.63 1.78,3.15 -2,8.6 -10.31,18.36 C 115.3,81.04 103.78,94.57 93.07,93.22 80.72,91.66 70.77,78.21 67.92,66.06 67.17,62.84 65.04,51.72 71.19,40.66 Z"
         id="path1-90" /><path
         class="st1"
         d="m 77.09,60.5 c -3.51,-10.19 3.32,-21.93 12.95,-25.46 12.5,-4.58 28.11,5.25 28.87,17.27 0.72,11.32 -11.9,21.8 -23.94,21 C 87.93,72.84 79.82,68.44 77.09,60.5 Z"
         id="path2-5" /></g><g
       id="map"
       transform="matrix(1.6351147,0,0,1.6351147,1.6312473,0.39549231)"><path
         class="st5"
         d="m 542.5,0 32.94,58.89 36.56,27.74 -10.55,12.72 24.85,20.23 16.76,-19.07 26.59,6.94 61.26,12.14 -12.72,26.59 17.34,6.36 16.76,-28.9 6.94,2.89 -8.09,26.01 8.09,2.31 10.98,-32.94 46.24,8.09 39.88,3.47 27.74,2.31 6.36,9.25 15.6,-1.73 24.27,6.94 2.31,34.68 -2.89,35.26 -29.48,-5.78 c 0,0 -95.94,-15.03 -94.79,-23.12 1.16,-8.09 -23.7,-4.05 -23.7,-4.05 l -6.94,6.94 1.73,11.56 24.85,6.94 27.16,7.51 30.63,5.2 39.88,5.78 24.27,6.94 9.25,45.08 h -7.51 l -12.14,-14.45 -11.56,24.85 -1.73,7.51 20.23,21.96 -25.43,71.97 h -15.6 l -21.96,-29.21 -28.32,15.6 -49.7,32.37 -17.28,-13.87 -13.93,10.79 14.38,19.78 h -24.5 l -4.72,12.59 h -5.84 l -6.74,-6.29 h -24.27 l -9.89,4.05 -26.52,2.25 c 0,0 -19.78,4.05 -18.43,3.15 1.35,-0.9 -13.93,16.18 -13.93,16.18 l -42.25,-22.48 -10.34,10.79 37.39,28.77 -14.01,21.13 -14.83,-25.17 -31.92,-20.23 -25.62,-18.43 -11.94,8.09 44.75,26.07 -9.89,16.18 -54.2,80.91 c -4.73,1.54 -10.86,4.38 -12.55,9.74 -1.43,4.52 1.43,7.25 2.11,13.05 1.21,10.42 -5.42,23.8 -13.89,26.11 -8.88,2.41 -13.17,-9.14 -26.11,-8.42 -6.31,0.35 -8.92,3.3 -19.79,9.59 -6.45,3.73 -16.03,8.77 -28.63,13.57 l -61.05,30.74 -126.32,56.42 -83.79,42.53 -53.05,5.47 -6.74,8 L 31.26,773.16 0,762.63 V 0 Z"
         id="path3" /><polygon
         class="st5"
         points="1053.64,136.6 1039.63,132.33 1032.93,179.25 1012.21,179.25 1012.21,218.24 1012.21,243.23 993.93,243.23 993.93,257.85 1007.34,260.29 1007.34,270.04 1020.74,270.04 1016.47,286.49 1023.79,290.75 1020.74,307.2 998.81,297.45 998.2,307.2 1029.27,332.79 1012.21,353.51 990.88,338.89 975.65,366.31 961.03,394.99 979.31,418.1 982.35,428.45 992.1,435.77 993.32,449.78 1003.07,452.22 1003.68,446.12 1011.6,452.22 998.2,482.68 1015.26,498.31 1028.66,511.93 1016.47,542.39 1032.93,551.53 1045.72,520.46 1061.56,534.47 1049.99,558.85 1054.86,566.77 1073.75,528.38 1102.39,546.66 1099.34,563.11 1107.87,566.77 1116.4,546.66 1124.32,555.19 1123.71,566.77 1138.95,575.3 1136.51,597.23 1146.26,599.67 1146.87,571.03 1173.68,571.03 1174.28,547.27 1199.27,557.02 1215.11,528.99 1224,525.94 1224,163.41 1209.02,163.41 1196.83,145.13 1180.38,145.13 1167.58,163.41 1135.9,163.41 1131.02,128.68 1110.31,125.02 1110.31,136.6 "
         id="polygon3" /><path
         class="st5"
         d="m 1224,1009.32 -29.99,3.16 v 35.42 l -15.81,-3.16 v -26.56 l -44.91,-2.53 v 21.5 l -19.61,0.63 v -22.14 h -57.56 l -10.75,37.32 v 21.5 h -8.85 l -5.06,-15.81 -28.46,-3.79 46.8,-67.04 9.49,-15.18 h 12.02 l 15.81,7.59 127.76,-1.26 9.11,-0.63 2.9,-110.05 -69.57,-30.99 -25.93,37.95 -16.44,-12.02 18.34,-34.79 -10.75,-8.85 -20.87,39.21 -25.3,5.69 -15.18,-8.22 26.56,-49.33 -18.34,-16.44 -27.83,58.82 -13.91,-6.96 25.3,-58.19 -13.28,-9.36 c 0,0 -29.73,58.7 -29.09,56.8 0.63,-1.9 -7.59,-11.38 -7.59,-11.38 l 22.77,-59.45 -8.22,-5.06 -8.22,19.1 -18.34,4.3 -16.44,-4.3 11.38,-29.22 c -6.95,-6.6 -13.63,-9.07 -17.71,-10.12 -20.89,-5.37 -42.73,8.81 -52.5,24.67 -3.92,6.37 -3.4,8.94 -6.96,19.61 -6.35,19.01 -12.78,25.09 -27.83,49.97 -18.43,30.47 -27.65,45.71 -32.89,61.98 -5.07,15.74 -6.37,27.43 -17.08,34.79 -8.9,6.12 -19.65,6.03 -27.2,5.06 l -33.32,19.9 -15.73,12.23 -6.99,22.14 -11.65,-1.17 V 966.6 l 14.57,-21.56 28.55,-14.57 22.14,-12.82 86.23,-170.71 19.81,-39.62 -9.32,-2.91 -1.17,-10.49 11.65,-2.91 -4.08,-19.81 h -8.74 l 1.17,-14.57 h 19.81 l -0.58,-11.07 h -27.97 l 0.58,-12.82 h 39.62 l -2.33,-16.9 -34.37,4.08 -3.5,-22.72 h 26.8 l -1.75,-13.98 h -27.97 l 0.58,-13.4 h 30.88 l -3.5,-30.3 h -27.38 l -4.66,-11.07 h 29.71 l -0.58,-9.32 h -10.49 l -3.5,-12.82 11.07,-6.99 -8.16,-21.56 -14.57,10.49 -19.23,-32.04 -25.05,-3.5 h -33.79 l -33.79,16.9 -19.23,10.49 -9.9,8.74 -15.73,-3.5 -20.39,-26.8 -30.88,3.5 -41.95,15.73 -22.71,29.71 7.56,13.4 -7.56,17.48 c 0,0 -13.41,-2.33 -11.08,-4.08 0.13,-0.1 0.19,-0.19 0.19,-0.28 -0.02,-0.34 -11.36,-3.7 -18.25,-1.47 -16.19,5.24 -17.33,44.47 -17.48,49.52 -0.54,18.57 3.52,25.95 0,46.03 -0.31,1.79 -0.76,4.1 -4.66,18.06 -14.23,50.93 -19.45,60.22 -25.05,67.58 -3.22,4.23 -8.59,10.49 -16.9,16.9 l -154.39,60.01 -13.4,5.83 -27.97,-3.5 -26.22,4.66 -26.8,18.64 -18.64,11.07 -43.11,-2.33 -18.06,-17.48 -39.04,-2.33 -15.73,8.16 C 135.39,813.35 -2.57,799.36 0,797.61 2.57,795.86 -0.04,1224 -0.04,1224 H 1224 Z"
         id="path4" /><path
         class="st0"
         d="m 466.31,27.09 c 26.91,-5.08 37.45,-18.01 54.18,-10.75 8.29,3.6 13.88,11.35 25.07,26.86 4.22,5.85 11.8,16.94 23.28,39.4 17,33.24 15.35,38.18 23.28,42.41 12.23,6.53 19.99,-3.14 52.7,-6.09 11.42,-1.03 48.22,-4.35 55.44,10.38 4.03,8.22 -4.53,15.15 0,22.51 6.93,11.25 30.05,0.14 41.35,12.22 8.66,9.26 -0.84,20.17 6.58,33.83 9.36,17.24 30.18,10.33 49.8,25.37 24.47,18.76 25.7,55.28 26.31,73.29 0.65,19.33 1.84,54.49 -20.67,75.17 -36.34,33.38 -117.19,13.25 -136.25,-26.31 -16.15,-33.51 22.66,-58.92 8.46,-105.24 -12.07,-39.34 -52.16,-60.5 -81.75,-76.11 -52.31,-27.6 -62.01,-9.54 -122.16,-39.01 C 428.68,103.83 429.87,92.62 378.9,70.06 346.91,55.9 324.08,50.43 324.4,40.93 c 0.34,-10.39 28.13,-18.82 47.92,-21.61 44.64,-6.3 54.62,15.21 93.99,7.77 z"
         id="path5" /><path
         class="st0"
         d="m 116.15,-23.76 c 38.72,16.52 36.22,29.65 61.04,37.94 45.8,15.28 88.19,-18.13 102.04,0 6.68,8.74 -0.66,19.8 9.11,31.31 7.94,9.35 19.88,10.41 28.24,11.84 43.53,7.48 76.47,40.14 90.2,53.75 27.06,26.83 18,37.04 36.44,45.55 26.31,12.15 44.2,-8.87 90.2,0 13.43,2.59 28.45,5.69 41.05,18.22 14.01,13.93 24,38.5 15.44,56.49 -4.58,9.62 -13.29,14.91 -41.91,24.6 -55.5,18.79 -83.25,28.19 -104.78,21.87 -33.19,-9.75 -27.26,-32.97 -66.51,-50.11 -32.88,-14.36 -66.15,-10.78 -90.2,-8.2 -50.74,5.45 -60.93,22.23 -82.91,12.76 -25.95,-11.19 -17.99,-37.26 -50.11,-60.13 -24.86,-17.7 -35,-5.91 -67.42,-25.51 C 74,139.33 48.32,123.31 35.96,91.95 27.53,70.56 29.23,52.02 30.49,38.2 c 1.8,-19.67 5.57,-60.78 30.98,-71.98 15.33,-6.76 31.89,0.31 54.67,10.02 z"
         id="path6" /><path
         class="st0"
         d="m 518.86,322.46 c 11.31,-2.24 7.66,-22.21 24.6,-42.68 10.95,-13.23 26.74,-19.5 58.31,-32.03 24.36,-9.67 36.54,-14.5 41.91,-10.93 19.09,12.7 -21.79,71.62 4.56,112.98 15.67,24.59 41.84,22.15 42.82,38.75 1.25,21.1 -39.47,51.61 -73.8,46.89 -19.93,-2.74 -35.86,-17.09 -47.38,-9.11 -7.35,5.09 -5.23,13.94 -11.84,16.4 -11.8,4.38 -23.99,-21.76 -39.18,-19.13 -11.69,2.02 -10.52,18.55 -28.24,29.11 -11.55,6.88 -23.36,6.6 -30.98,6.42 -29.49,-0.69 -49.65,-19.59 -54.67,-24.6 -3.89,-3.89 -30.98,-31.94 -24.6,-72.18 5.4,-34.02 30.77,-51.85 34.62,-54.46 1.64,-1.11 36.35,-23.95 67.42,-10.93 20.99,8.8 25.39,27.7 36.44,25.51 z"
         id="path7" /><path
         class="st0"
         d="m 170.82,242.28 c 11,3.77 37.51,12.87 67.42,5.47 22.34,-5.53 22.24,-14.25 47.38,-20.04 7.76,-1.79 28.32,-6.28 52.84,0 12.92,3.31 23.5,10 44.64,23.37 29.71,18.79 31.48,25.59 31.89,28.7 1.26,9.63 -6.37,15.6 -18.22,30.84 -10.87,13.97 -29.06,37.36 -33.71,61.04 -4.76,24.26 5.36,45.39 16.34,68.33 19.32,40.35 40,48.98 35.73,59.22 -7.5,17.98 -83.59,21.09 -133.16,-19.13 C 247.49,452.1 258.69,429.8 223.66,400.81 188.79,371.97 145.57,367.48 96.11,362.34 26.99,355.16 1.93,368.5 -17.78,347.41 c -23.28,-24.92 -12.16,-69.1 -10.02,-76.89 1.69,-6.16 12.2,-42.08 47.38,-61.04 41.54,-22.39 85.82,-4.07 95.67,0 27.4,11.34 25.32,22.41 55.58,32.8 z"
         id="path8" /><path
         class="st0"
         d="m -10.49,388.54 c 8.54,-7.09 33.33,-7.32 82.91,-7.77 63.16,-0.58 82.46,4.49 92.93,7.77 18.71,5.86 38.64,12.11 56.49,30.49 23.94,24.66 28.15,54.68 30.07,68.33 2.21,15.78 6.9,49.22 -11.84,79.27 -21.27,34.09 -59.47,42.58 -89.29,49.2 -25.99,5.77 -86.72,19.26 -127.55,-16.16 -17.88,-15.51 -23.81,-33.33 -33.71,-63.1 -7.77,-23.34 -38.58,-115.97 0,-148.02 z"
         id="path9" /><path
         class="st0"
         d="m 6.82,627.22 c 17.95,-7.96 28.89,4.73 72.89,8.11 31.51,2.42 55.77,-1.95 68.33,-4.05 36.07,-6.05 59.49,-9.97 80.18,-25.46 43.67,-32.7 28.12,-81.74 61.04,-93.92 24.24,-8.97 34.82,16.83 90.14,17.74 20.46,0.34 43.16,0.19 63.83,-13.74 20.08,-13.53 17.21,-26.86 37.35,-38.19 21,-11.82 50.2,-12.02 54.65,-2.73 7.23,15.09 -57.84,40.68 -59.21,89.29 -0.34,11.97 3.19,25.3 -5.47,33.71 -7.52,7.3 -18.77,5.61 -29.16,5.7 -21.18,0.19 -31.98,7.77 -65.6,23.55 -97.12,45.59 -128.88,39.61 -197.71,85.55 -13.07,8.72 -31.59,22.06 -61.04,35.53 -30.1,13.77 -50.15,22.63 -75.62,19.13 -5.82,-0.8 -44.47,-6.1 -61.95,-38.27 C -40.69,692.08 -21.58,639.8 6.8,627.22 Z"
         id="path10" /><path
         class="st0"
         d="m 583.69,584.37 c -1.83,-5.85 -8.18,-25.63 0,-32.66 8.46,-7.27 23.3,6.96 37.56,0 12.76,-6.22 7.86,-21 23.68,-43.28 6.19,-8.71 17.87,-25.16 35.11,-27.76 18.63,-2.81 24.27,13.5 48.18,16.33 22.66,2.68 27.13,-10.85 53.08,-13.88 25.25,-2.95 58.18,5.51 77.57,28.78 19.52,23.4 17.62,52.55 16.33,72.48 -3.58,55.21 -36.13,92.64 -41.64,98.8 -58.92,65.87 -178.76,85.11 -221.56,39.2 -26.05,-27.95 -3.45,-58.46 -28.31,-138 z"
         id="path11" /><path
         class="st0"
         d="m 715.97,756.67 c 22.81,-25.31 45.12,-9.99 88.19,-35.11 33.67,-19.64 45.65,-43.94 60.43,-38.38 9.94,3.74 13.21,18.01 14.7,24.5 5.78,25.2 -5.65,47.48 -12.25,60.52 -57.98,114.56 -51.38,124.32 -75.94,139.54 -23.59,14.62 -41.05,12.66 -56.34,34.3 -13.57,19.2 -6.79,30.59 -18.78,47.36 -15.64,21.86 -43.68,25.57 -84.92,31.03 -45.33,6 -72.77,9.63 -104.52,-4.9 -11.55,-5.28 -45.82,-20.97 -60.22,-58.79 -14.68,-38.55 -3.66,-86.82 25.11,-109.42 7.23,-5.68 15.55,-9.72 102.07,-17.15 63.42,-5.45 82.06,-5.27 97.59,-21.23 17.72,-18.21 6.48,-31.84 24.89,-52.26 z"
         id="path12" /><path
         class="st0"
         d="m 544.5,736.25 c 17.38,-3.88 29.28,-4.92 41.64,0 21.19,8.42 39.55,32.66 35.11,51.44 -5.32,22.52 -41.87,30.74 -68.59,36.75 -57.69,12.97 -90.82,-1.6 -104.52,17.96 -6.12,8.73 -3.32,17.08 0,42.46 8.15,62.26 12.25,93.5 0,113.5 -21.87,35.71 -95.66,35.27 -145.35,16.33 -43.71,-16.66 -99.5,-59.35 -94.72,-102.89 0.62,-5.62 20.29,-29.41 59.61,-76.76 9.78,-11.77 19.99,-23.75 36.75,-27.76 15.1,-3.62 25.53,1.61 36.75,4.08 16.68,3.68 29.54,0.04 118.65,-43.18 23.97,-11.63 49.09,-24 84.67,-31.94 z"
         id="path13" /><path
         class="st0"
         d="m -18.73,832.95 c 33.15,-18.33 72.47,-10.04 131.03,2.32 41.39,8.73 72.14,15.68 85.88,40.91 10.88,19.98 4.83,42.41 -7.72,86.46 -13.35,46.87 -23.54,82.62 -55.58,117.33 -17.59,19.06 -48.19,52.21 -94.17,54.03 -2.13,0.08 -39.93,1.08 -70.2,-22.39 -73.96,-57.33 -69.12,-234.48 10.77,-278.66 z"
         id="path14" /><path
         class="st0"
         d="m -35.71,1152.53 c 5.58,-12.38 37.86,-1.8 78.74,-6.95 11.04,-1.39 58.55,-7.38 94.95,-40.91 14.79,-13.62 45.96,-48.58 57.89,-98.03 3.48,-14.44 4.09,-24.98 11.92,-28.48 15.63,-6.99 32.43,26.41 76.08,49.32 5.91,3.1 58.79,30.04 110.39,16.99 32.22,-8.15 48.63,-18.78 48.63,-18.78 11.33,-7.34 16.27,-13.27 27.02,-15.18 17.33,-3.08 32.67,7.31 37.82,10.81 30.77,20.86 47.01,71.21 34.74,112.73 -2.56,8.65 -13.81,42.15 -69.47,73.31 -46.76,26.18 -88.93,30.58 -250.1,25.47 -85.46,-2.71 -205.5,-8.13 -247.79,-55.58 -3.38,-3.79 -14.57,-16.35 -10.81,-24.7 z"
         id="path15" /><path
         class="st0"
         d="m 587.23,1062.21 c 5.51,-4.9 25.17,-21.82 56.35,-34.74 29.2,-12.1 53.53,-14.49 72.56,-16.21 43.75,-3.95 68.61,-6.2 96.49,6.18 46.99,20.85 66.68,67.33 75.65,88.5 14.09,33.25 24.86,58.66 13.89,77.46 -23.1,39.62 -109.04,-7.8 -235.44,16.21 -43.15,8.2 -88.52,3.29 -130.94,14.67 -6.02,1.61 -22.19,6.17 -26.54,0 -4.6,-6.53 8.68,-18.5 21.61,-42.46 21.63,-40.06 12,-57.51 36.28,-88.77 7.5,-9.66 14.67,-16.04 20.07,-20.84 z"
         id="path16" /><path
         class="st0"
         d="m 795.7,964.9 c 6.28,-27.03 54.32,-12.52 87.24,-55.58 17.42,-22.78 25.69,-55.25 40.12,-111.93 4.82,-18.92 10.5,-44.33 20.07,-44.77 8.93,-0.41 11.24,21.4 29.33,27.79 16.42,5.79 31.22,-6.28 34.74,-1.54 5.35,7.19 -31.76,30.99 -27.79,52.49 4.17,22.61 51.85,32.24 79.51,37.83 62.16,12.56 85.1,-0.14 119.65,20.84 18.86,11.45 40.91,32.78 36.28,44.77 -6.27,16.23 -55.26,-0.65 -135.09,15.44 -39.82,8.02 -68.47,14.22 -83.37,37.82 -18.22,28.87 0.76,57.43 -17.75,74.1 -19.16,17.25 -57.72,3.09 -78.74,-4.63 C 852.55,1040.14 788.14,997.4 795.69,964.9 Z"
         id="path17" /><path
         class="st0"
         d="m 916.44,1096.95 c 9.74,-10.21 26.82,-11.69 60.98,-14.67 19.24,-1.67 28.96,-2.52 42.46,0 29.5,5.51 42.45,20.64 50.95,14.67 8.63,-6.06 -2.84,-23 5.4,-35.51 13.99,-21.23 70.19,-7.54 101.12,0 48.88,11.91 73.33,17.87 91.86,36.88 30.81,31.61 44.85,87.89 24.6,125.68 -35.04,65.39 -157.62,47.28 -209.09,39.68 -44.47,-6.57 -128.96,-19.05 -162.88,-81.82 -13.73,-25.42 -23.1,-66.37 -5.4,-84.91 z"
         id="path18" /><path
         class="st0"
         d="m 1028.94,223.16 c 1.15,-25.42 18.06,-52.9 40.57,-60.85 20.6,-7.28 29.29,7.66 77.45,16.6 44.87,8.32 55.02,-1.37 71.92,11.05 27.47,20.2 26.26,64.68 25.82,81.15 -0.35,12.93 -3.47,64.04 -43.34,102.35 -54.87,52.73 -149.48,52.48 -163.2,25.82 -10.3,-20.02 32.38,-40.59 28.58,-86.67 -3.39,-41.15 -39.56,-50.59 -37.8,-89.44 z"
         id="path19" /><path
         class="st0"
         d="m 1058.45,452.7 c -1.55,-2.2 -8.04,0.7 -8.3,0.05 -0.86,-2.15 68.49,-32.65 157.67,-52.56 23.01,-5.14 35.58,-6.94 47.02,0 25.96,15.75 33.8,69.05 12.91,91.28 -22.29,23.71 -57.01,-9.47 -125.4,12.91 -19.65,6.43 -33.54,14.65 -57.17,12.91 -21.52,-1.59 -48.55,-11.26 -50.71,-25.82 -2.43,-16.39 27.43,-33.88 23.97,-38.77 z"
         id="path20" /><path
         class="st4"
         d="m 1051.88,219.05 c 2.01,-7.09 9.35,-33.04 27.96,-38.45 22.13,-6.43 32.29,24.31 67.81,25.87 23.7,1.04 32.14,-12.07 53.13,-5.11 10.32,3.42 25.16,12.2 26.12,23.98 1.23,15.1 -20.98,27.39 -35.91,35.65 -38.1,21.08 -74.15,19.15 -88.78,18.18 -21.86,-1.46 -37.41,-2.5 -46.84,-14.68 -11.98,-15.48 -5.6,-37.99 -3.5,-45.44 z"
         id="path21" /><path
         class="st4"
         d="m 1060.27,379.84 c 11.15,-25.39 16.73,-38.08 20.97,-45.44 12.1,-20.99 18.14,-31.49 25.17,-37.05 23.94,-18.95 56.11,-13.39 83.19,-8.7 24.42,4.23 28.83,10.29 30.06,12.2 11.82,18.29 -12.06,51.23 -13.98,53.83 -22.64,30.57 -57.63,38.43 -95.07,46.84 -15.58,3.5 -50.53,11.35 -56.62,0 -1.64,-3.05 -0.5,-6.21 6.29,-21.67 z"
         id="path22" /><path
         class="st4"
         d="m 1053.31,482.6 c -0.15,-8.74 12.31,-12.82 76.16,-41.24 30.22,-13.45 47.17,-21.33 73.4,-24.43 26.71,-3.16 36.92,1.71 41.98,4.86 16.27,10.14 28.3,33.04 21.64,46.14 -8.55,16.81 -39.03,0.08 -92.98,14.68 -41.81,11.32 -54.59,29.78 -84.59,23.77 -15.68,-3.14 -35.43,-12.85 -35.62,-23.77 z"
         id="path23" /><path
         class="st4"
         d="m 348.62,40.79 c 0.18,-7.11 19.31,-11.86 22.37,-12.58 23,-5.47 36.14,2.23 60.82,6.29 41.91,6.89 46.54,-8.35 75.5,2.1 7.67,2.77 33.26,12 43.34,37.05 1.07,2.66 10.79,26.81 0,39.15 -17.69,20.21 -77.52,-6.09 -92.28,-12.58 C 422.16,84.3 423.72,74.47 383.57,58.98 365.44,51.99 348.45,47.55 348.62,40.8 Z"
         id="path24" /><path
         class="st4"
         d="m 613.43,152.64 c 2.2,-14.17 23.29,-21.99 28.1,-23.77 5.16,-1.91 25.24,-9.36 36.35,0 10.66,8.97 2.44,24.45 13.2,32.86 9.13,7.14 18.66,-1.19 30.14,6.29 9.11,5.94 15.45,19.22 11.88,27.26 -5.9,13.31 -38.72,11.68 -59.84,6.08 -27.94,-7.41 -62.89,-29.05 -59.84,-48.72 z"
         id="path25" /><path
         class="st4"
         d="m 691.08,291.75 c 1.45,-9.78 3.09,-36.62 -4.11,-62.92 -0.84,-3.06 -2.15,-7.42 0,-11.18 5.53,-9.68 28.58,-6.1 40.81,-4.19 18.4,2.86 32.11,4.99 46.57,14.68 24.62,16.49 38.41,46.16 38.45,74.8 0.01,8.3 0.07,49.64 -32.16,69.21 -29.91,18.16 -63.47,2.92 -69.91,0 -7.05,-3.2 -34.24,-15.55 -37.06,-37.05 -2.22,-17.01 13.65,-18.05 17.4,-43.34 z"
         id="path26" /><path
         class="st4"
         d="m 415.7,198.57 c 6.27,-13.82 23.11,-18.34 56.79,-27.37 28.85,-7.74 44.26,-11.87 63.32,-6.31 24.34,7.11 50.79,28.91 47.77,46.32 -1.67,9.61 -11.34,12.25 -63.74,34.65 -49.71,21.25 -56.12,25.35 -67.68,21.85 -26.61,-8.05 -46.87,-46.21 -36.46,-69.15 z"
         id="path27" /><path
         class="st4"
         d="m 254.09,26.31 c 10.09,7.1 3.8,22.95 18.98,35.61 14.72,12.29 26.58,2.33 51.33,11.38 12.79,4.68 26.86,18.78 55,46.99 22.76,22.82 25.05,28 25.7,33.59 1.99,17.24 -11.59,38.37 -30.05,47.47 -42.53,20.98 -90.54,-31.93 -127.48,-8.32 -14.48,9.26 -15.25,22.6 -26.41,22.53 -16.94,-0.11 -19.33,-30.91 -49.17,-55.2 -27.15,-22.1 -46.49,-13.98 -51.9,-27.42 -14.2,-35.26 104.3,-127.51 134,-106.63 z"
         id="path28" /><path
         class="st4"
         d="m 69.1,14.18 c 13.26,-7.63 24.46,9.13 62.83,12.13 28.58,2.24 42.88,-5.46 45.53,0 5.99,12.33 -67.49,50.6 -79.22,89.34 -0.69,2.27 -2.31,8.34 -6.37,9.37 C 83.51,127.15 70.01,106.55 63.64,90.15 53.8,64.79 51.3,24.42 69.1,14.18 Z"
         id="path29" /><path
         class="st4"
         d="m 399.64,347.42 c 4.76,-12.28 12.17,-20.39 16.06,-24.16 3.58,-3.47 22.97,-22.31 44.13,-19.12 21.84,3.29 23.93,26.78 44.53,29.14 13.46,1.54 24.45,-7.13 37.33,-17.3 27.76,-21.91 26.62,-41.11 51.4,-52.81 5.52,-2.61 20.93,-9.89 28.83,-3.64 10.78,8.54 -8.03,30.03 0,63.74 6.72,28.19 23.58,51.9 23.58,51.9 6.15,8.64 11.2,13.68 10.02,20.47 -2.36,13.61 -27.22,19.72 -33.59,21.28 -21.45,5.27 -34.35,1.33 -59.29,-1.03 -5.49,-0.52 -41.41,-3.75 -79.22,1.03 -44.64,5.64 -53.29,17.55 -67.72,9.24 -21.18,-12.2 -26.55,-51.7 -16.06,-78.74 z"
         id="path30" /><path
         class="st4"
         d="m 23.57,235.64 c 2.58,-2.45 22.91,-21.21 50.99,-20.07 23.24,0.95 28.51,14.58 61.01,29.37 10.04,4.57 41.94,18.72 79.22,17.3 37.62,-1.43 37.22,-17.06 77.4,-19.12 13.38,-0.69 56.02,-2.28 82.86,25.7 7.74,8.07 14.07,14.67 13.66,23.47 -1.24,26.45 -61.21,28.69 -71.03,62.93 -7.39,25.77 19.75,48.38 12.75,55.45 -8.81,8.89 -46.33,-32.35 -112.91,-55.45 C 194.36,347.18 141.14,328.72 75.47,336 40.61,339.86 25.68,348.38 12.64,337.82 -9.11,320.21 -6.92,264.61 23.57,235.63 Z"
         id="path31" /><path
         class="st4"
         d="m 4.45,400.66 c 29.21,-27.39 79.51,-14.11 132.95,0 44.69,11.8 68.66,18.13 85.59,41.89 22.45,31.49 19.93,75.9 3.64,106.54 C 198.31,602.36 123.28,623.57 65.46,599.67 -8.44,569.13 -15.29,481 -15.58,476.24 -16.64,458.93 -18.86,422.52 4.45,400.66 Z"
         id="path32" /><path
         class="st4"
         d="m 282.17,577.31 c 10.12,-24.6 1.65,-40.8 11.84,-47.35 11.34,-7.3 23.66,11.62 54.61,16.39 34.88,5.37 47.88,-14.25 75.6,-3.64 13.56,5.19 29.3,17.09 27.93,27.32 -1.57,11.74 -24.79,14.64 -57.73,25.5 -45.91,15.13 -42.01,23.08 -102.24,48.26 -36.17,15.12 -94.69,36.14 -98.72,28.23 -2.02,-3.96 11.1,-12.26 54.1,-53.73 25.14,-24.24 30.43,-30.82 34.6,-40.98 z"
         id="path33" /><path
         class="st4"
         d="m -10.12,673.74 c 5.21,-12 17.03,-17.64 21.85,-19.94 20.89,-9.96 35.31,-1.34 63.74,0 49.72,2.34 66.41,-21.18 86.51,-7.41 13.07,8.96 19.55,28.19 15.83,42.92 -5.45,21.59 -31.87,29.75 -76.84,43.63 -39.32,12.14 -58.98,18.21 -77.4,9.18 C -1.34,729.9 -19.92,696.3 -10.12,673.73 Z"
         id="path34" /><path
         class="st4"
         d="m 619,570.46 c 15.38,-14.59 37.21,-10.16 50.59,-31.79 10.22,-16.53 2.88,-27.85 11.09,-34.3 17.65,-13.87 75.67,19.56 112.73,66.09 20.24,25.42 49.75,62.48 38.16,98.72 -17.35,54.23 -111.34,58.31 -119.31,58.56 -20.48,0.65 -45.06,1.43 -67.76,-14.22 -47.64,-32.84 -54.46,-115.58 -25.49,-143.06 z"
         id="path35" /><path
         class="st4"
         d="m 916.92,880.21 c 3.61,-4.31 18.51,-20.95 40.16,-22.8 21.15,-1.81 26.74,12.39 57.72,22.8 6.21,2.09 26.73,4.11 67.76,8.16 22.29,2.2 43.64,4.04 66.93,17.19 7.36,4.16 14.94,8.44 14.22,12.09 -1.92,9.79 -59.11,-8.07 -119.63,14.22 -15.42,5.68 -57.16,21.05 -74.46,58.56 -12.39,26.87 -1.64,42.11 -13.39,52.71 -30.8,27.77 -147.18,-38.74 -140.55,-65.93 4.4,-18.01 59.42,-4.99 81.15,-41.15 11.73,-19.52 2.93,-35.35 20.08,-55.84 z"
         id="path36" /><path
         class="st4"
         d="m 717.96,795.5 c 5.82,-12.88 7.48,-20.04 15.74,-27.31 14.7,-12.92 38.32,-15.65 57.72,-8.66 1.25,0.45 31.5,11.89 38.48,40.99 8.01,33.39 -21.4,61.75 -26.77,66.93 -26.72,25.76 -46.17,13.63 -71.11,38.11 -24.61,24.15 -12.7,42.86 -35.97,65.63 -20.4,19.96 -59.29,34.67 -94.32,19.24 -41.74,-18.38 -62.07,-72.54 -47.06,-97.04 19.24,-31.42 85.88,3.37 124.65,-39.36 24.3,-26.79 38.64,-58.52 38.64,-58.52 z"
         id="path37" /><path
         class="st4"
         d="m 475.2,900.08 c 6.86,-16.39 23.1,-32.46 33.14,-29.28 9.99,3.16 4.5,22.42 17.05,52.71 13.63,32.89 33.09,41.5 28.44,53.7 -4.52,11.89 -28.12,17.28 -45.5,11.55 -31.04,-10.23 -46.29,-57.26 -33.14,-88.68 z"
         id="path38" /><path
         class="st4"
         d="m 459.82,785.47 c 20.67,-12.76 40.82,-25.2 69.75,-29.68 26.08,-4.04 67.36,-2.88 72.16,12.41 3.25,10.34 -10.9,24.85 -22.12,32.33 -23.2,15.47 -41,5.61 -93.54,10.04 -39.52,3.33 -60.45,11.51 -62.74,5.95 -2.81,-6.79 26.13,-24.65 36.5,-31.05 z"
         id="path39" /><path
         class="st4"
         d="m 298.33,828.97 c 18.59,-2.59 29.61,7.64 54.38,0 19.69,-6.07 25.19,-16.38 38.48,-15.06 16.25,1.62 26.82,18.92 34.95,32.63 8.7,14.67 38.8,65.46 16.09,118.8 -4.62,10.86 -14.86,34.9 -39.32,46.85 -35.99,17.59 -76.62,-3.79 -109.59,-21.13 -33.97,-17.86 -56.25,-29.59 -63.58,-54.17 -13.08,-43.86 29.27,-102.44 68.6,-107.92 z"
         id="path40" /><path
         class="st4"
         d="m -19.23,854.02 c 5.18,-5.39 14,-11.42 71.95,-10.83 59.95,0.61 90.34,1.28 110.43,19.24 13.47,12.05 30.32,35.96 23.42,53.84 -7.97,20.66 -43.56,22.73 -107.92,26.47 -55.4,3.22 -83.4,4.49 -97.88,-12.02 -17.56,-20.02 -18.02,-57.93 0,-76.7 z"
         id="path41" /><path
         class="st4"
         d="m -36.88,988.51 c 9.49,-35.36 107.27,-56.13 159.4,-16 4.04,3.11 37.4,29.52 31.79,61.17 -5.02,28.35 -38.41,44.51 -61.07,48.52 -64.43,11.41 -139.7,-58.01 -130.12,-93.7 z"
         id="path42" /><path
         class="st4"
         d="m 193.27,1065.72 c 6.14,-6.78 18.26,-19.82 38.48,-25.93 41.16,-12.45 77.29,15.49 81.99,19.24 22.17,17.71 48.35,54.72 36.81,90.35 -14.98,46.27 -81.05,51.55 -95.49,52.71 -18.11,1.45 -62.25,4.97 -83.54,-23.42 -24.38,-32.53 -2.87,-85.76 21.76,-112.94 z"
         id="path43" /><path
         class="st4"
         d="m 383.17,1083.46 c 14.14,-20.85 41.88,-37.85 71.95,-33.68 19.24,2.67 45.72,14.88 53.22,39.37 7.4,24.18 -8.03,46.23 -17.25,59.4 -16.89,24.14 -57.1,62.15 -88.68,49.36 -32.49,-13.17 -45.38,-75.89 -19.24,-114.44 z"
         id="path44" /><path
         class="st4"
         d="m 546.58,1184.52 c -13.83,-22.96 41.54,-77.83 47.42,-83.66 41.34,-40.97 86.62,-57.48 110.43,-64.24 37.28,-10.59 63.36,-18 90.67,-6.03 23.7,10.39 38,34.32 66.6,82.19 20.44,34.21 30.66,51.31 25.93,59.19 -14.91,24.89 -100.15,-43.86 -189.91,-10.99 -27.79,10.17 -53.6,29.21 -102.9,32.75 -18.18,1.31 -41.09,2.7 -48.25,-9.2 z"
         id="path45" /><path
         class="st4"
         d="m 932.62,1148.54 c -1.42,-15.24 2.9,-35.52 16.92,-46.85 33.36,-26.95 100.19,14.06 115.45,23.42 12.08,7.42 76.94,47.22 68.6,85.33 -3.6,16.44 -19.3,25.68 -22.59,27.61 -54.62,32.11 -172.32,-24.71 -178.38,-89.52 z"
         id="path46" /><path
         class="st4"
         d="m 1109.33,1105.94 c 0.2,-18.29 -19.01,-26.59 -16.82,-32.69 3.31,-9.2 53.83,-9.29 99.64,16.34 21.1,11.81 68.7,38.45 66.93,80.38 -1.81,42.88 -54.26,78.26 -72.78,68.92 -17.72,-8.94 5.15,-53.97 -22.54,-81.15 -20.76,-20.37 -56.62,-17.65 -58.74,-34.3 -0.81,-6.34 4.22,-8.2 4.32,-17.51 z"
         id="path47" /><path
         class="st3"
         d="m 71.19,40.66 c 1.86,-3.35 4.7,-8.47 10.31,-11.32 10.78,-5.48 18.4,4.23 39.98,5.66 16.03,1.06 24.87,-3.43 27.16,0.63 1.78,3.15 -2,8.6 -10.31,18.36 C 115.3,81.04 103.78,94.57 93.07,93.22 80.72,91.66 70.77,78.21 67.92,66.06 67.17,62.84 65.04,51.72 71.19,40.66 Z"
         id="path48" /><path
         class="st3"
         d="m 136,109.3 c -2.17,-7.67 14.2,-18.75 47.02,-40.61 36.74,-24.46 43.85,-24.93 49.19,-24.25 21.93,2.79 34.87,27.62 42.16,41.62 8.42,16.16 20.64,39.63 10.81,64.32 -10.82,27.15 -44.43,46.04 -63.78,37.84 -21.31,-9.03 -10.9,-44.81 -38.92,-63.96 C 161.43,109.87 138.6,118.5 136,109.3 Z"
         id="path49" /><path
         class="st3"
         d="m 307.34,98.49 c 4.62,-1.17 14.97,-2.34 37.84,13.51 21.7,15.05 32.55,22.57 34.23,36.21 1.58,12.84 -5.24,25.19 -13.69,32.43 -17.07,14.62 -45.35,12.32 -54.44,0 -11.4,-15.45 10.83,-41.96 -3.94,-60.35 -4.27,-5.31 -11.4,-9.66 -10.15,-14.79 1.16,-4.76 8.68,-6.66 10.15,-7.03 z"
         id="path50" /><path
         class="st3"
         d="m 369.5,40.11 c 0.7,-2.93 22.69,1.62 61.62,4.17 34.2,2.24 33.19,-0.23 46.48,2.32 35.13,6.73 69.77,29.25 67.02,40 -2.4,9.36 -33.56,11.28 -56.75,6.72 -7.8,-1.54 -21.6,-7.69 -49.19,-20.01 C 415.01,62.74 419,63.55 394.43,52.55 375.86,44.24 369.1,41.77 369.5,40.12 Z"
         id="path51" /><path
         class="st3"
         d="m 631.65,157.4 c 0.13,-10.05 8.43,-20.64 19.46,-22.16 0.93,-0.13 8.52,-1.06 15.13,3.78 4.32,3.16 5.98,7.15 9.73,18.38 5.68,17.02 8.49,25.58 7.03,27.57 -5.94,8.08 -34.46,2.76 -46.48,-14.05 -1.64,-2.29 -4.95,-7.05 -4.86,-13.51 z"
         id="path52" /><path
         class="st3"
         d="m 424.09,205.52 c 0.4,-4.17 5.37,-7.85 33.04,-16.84 23.71,-7.7 35.56,-11.55 44.25,-12.35 24.76,-2.3 58.32,3.56 60,14.6 1.28,8.43 -17.34,11.22 -58.92,40 -23.66,16.37 -36.48,28.52 -45.33,23.78 -6.66,-3.56 -3.05,-12.37 -12.5,-26.49 -9.87,-14.74 -21.17,-16.13 -20.54,-22.7 z"
         id="path53" /><path
         class="st3"
         d="m 701.37,243.35 c 3.39,-7.92 13.66,-10.39 22.16,-12.43 19.26,-4.63 46.24,0.31 55.13,17.3 6.53,12.48 1.67,28.32 -3.24,44.32 -5.28,17.21 -10.88,21.27 -8.65,29.73 4.11,15.6 26.94,16.2 27.03,25.16 0.09,9.57 -25.84,20.86 -50.67,19.71 -21,-0.98 -47.45,-11.15 -48.25,-24.09 -0.85,-13.88 28.74,-16.31 32.97,-36.45 5.19,-24.7 -34.25,-45.12 -26.49,-63.24 z"
         id="path54" /><path
         class="st3"
         d="m 435.98,343.03 c 9.8,-16.48 9.79,-22.98 16.26,-24.56 11.31,-2.75 17.21,15.66 43.2,28.94 20.71,10.58 34.54,7.87 35.67,14.3 1.07,6.05 -10.76,10.78 -44.86,30.81 -33.26,19.54 -38.86,24.94 -50.27,23.24 -14.36,-2.13 -29.67,-14.28 -30.68,-27.23 -1.02,-12.98 13.18,-16.06 30.68,-45.51 z"
         id="path55" /><path
         class="st3"
         d="m 546.79,336.85 c 5.49,-11.11 12.28,-18.51 21.08,-28.11 13.5,-14.72 22.92,-24.99 28.65,-22.7 9.66,3.87 -7.04,37.14 8.65,72.97 9.64,22.01 23.34,26.34 20.54,35.13 -5.52,17.36 -67.26,26.81 -84.86,0 -12.77,-19.45 2.59,-50.52 5.95,-57.29 z"
         id="path56" /><path
         class="st3"
         d="m 50.06,260.64 c 15.76,-4.52 25.24,4.84 49.73,12.43 21.06,6.53 46.47,5.25 97.29,2.7 66.48,-3.34 99.71,-5 105.94,-6.95 6.12,-1.91 19.78,-6.57 30.27,0 9.63,6.03 16.47,21.43 11.89,31.81 -9.8,22.22 -66.55,9.33 -72.43,28.11 -3.34,10.66 12.59,22.35 9.19,26.48 -3.93,4.79 -25.39,-10.77 -54.59,-21.08 -8.82,-3.11 -12.52,-3.69 -74.05,-11.89 -68.13,-9.08 -73.33,-9.67 -84.86,-8.54 -33.87,3.3 -47.29,14.06 -53.51,6.92 -9.51,-10.91 7.82,-52.16 35.13,-60 z"
         id="path57" /><path
         class="st3"
         d="m 9.51,448.75 c 14,-23.64 50.61,-23.75 73.52,-23.82 29.2,-0.09 82.04,-0.25 108.66,39.7 13.78,20.68 22.45,55 6.81,80.46 -22.71,36.98 -82.02,31.42 -111.17,22.76 -3.36,-1 -60.88,-19.03 -77.82,-70.78 -3.31,-10.1 -10.19,-31.13 0,-48.32 z"
         id="path58" /><path
         class="st3"
         d="m 248.78,635.08 c 20.46,-17.12 35.09,-29.36 41.29,-48.7 5.93,-18.5 -0.75,-28.2 7.41,-34.94 8.18,-6.76 16.7,1.52 41.82,2.12 27.74,0.66 36.87,-8.96 57.7,-2.12 6.96,2.29 17.04,5.6 17.85,11.65 1.26,9.41 -21.07,16.58 -73.43,42.35 -31.92,15.71 -44.76,23.44 -76.23,36.6 -9.34,3.91 -41.32,17.27 -42.88,14.22 -0.94,-1.85 10.36,-7.7 26.47,-21.17 z"
         id="path59" /><path
         class="st3"
         d="m 98.44,678.49 c 2.69,-15.02 20.4,-21.29 31.76,-21.78 13.35,-0.58 29.92,6.27 32.29,17.03 3.49,15.82 -23.35,41.66 -44.47,34.93 -11.31,-3.6 -21.97,-16.87 -19.59,-30.17 z"
         id="path60" /><path
         class="st3"
         d="m -1.79,682.37 c 6.43,-12.82 22.36,-15.44 26.12,-16.06 20.45,-3.36 36.53,9.54 40.76,13.23 2.61,2.28 24.5,21.4 17.94,38.64 -6.62,17.39 -36.14,16.98 -37.52,16.94 -24,-0.63 -47.62,-18.84 -49.76,-38.11 -0.2,-1.76 -0.82,-8.11 2.46,-14.65 z"
         id="path61" /><path
         class="st3"
         d="m 626.07,647.79 c -5.38,-21.74 -13.13,-53.08 2.26,-68.29 16.91,-16.71 51.97,-4.3 56.64,-2.65 33.92,12 71.98,49.73 61.94,86.29 -5.31,19.33 -22.72,33.44 -40.23,38.64 -28.19,8.38 -56.01,-6.53 -69.35,-24.88 -6.16,-8.47 -8.02,-16.02 -11.26,-29.12 z"
         id="path62" /><path
         class="st3"
         d="m 524.58,777.48 c 14.83,-6.61 19.64,-9.69 29.96,-11.65 5.45,-1.04 23.92,-4.55 27.75,2.36 3.21,5.78 -4.76,17.22 -12.18,23.58 -26.6,22.81 -78.09,7.67 -78.35,0 -0.09,-2.66 6.08,-2.38 32.82,-14.29 z"
         id="path63" /><path
         class="st3"
         d="m 275.78,854.02 c 2.96,-2.28 20.63,-15.36 42.8,-10.87 26.63,5.39 37.99,31.7 40.31,37.06 12.23,28.31 2.23,58.99 -12.7,77.26 -5.45,6.66 -13.77,16.85 -27.6,19.74 -23.38,4.89 -46.94,-14.31 -57.62,-32.47 -16.94,-28.81 -10.85,-70.97 14.82,-90.71 z"
         id="path64" /><path
         class="st3"
         d="m 373.71,843.15 c 6.69,-7.31 18.36,-5.06 19.59,-4.8 11.36,2.37 16.81,12.49 18.53,15.67 5.6,10.39 7.97,27.54 0,33.57 -9.2,6.97 -30.3,-2.32 -38.11,-17.2 -3.4,-6.47 -7.14,-19.45 0,-27.24 z"
         id="path65" /><path
         class="st3"
         d="m 502.35,941.58 c 3.42,11.75 -3.97,16.92 0,25.41 5.95,12.74 30.28,17.58 35.04,11.15 4.47,-6.03 -12.12,-16.85 -24.71,-50.33 -7.08,-18.84 -7.5,-30.5 -13.32,-31.23 -5.89,-0.74 -14.67,10.04 -13.94,19.68 0.82,10.83 12.98,11.72 16.94,25.31 z"
         id="path66" /><path
         class="st3"
         d="m 571.16,921.38 c 1.13,-7.3 2.48,-16.02 8.45,-21.71 14.09,-13.42 35.59,7.47 64.95,-3.11 17.85,-6.43 22.42,-18.66 35.67,-16.34 12.28,2.15 19.16,14.54 20.16,16.34 13.93,25.09 -8.67,57.77 -9.88,59.46 -2.2,3.09 -25.43,34.58 -63.01,31.02 -22.38,-2.12 -45.07,-16.22 -53.25,-37.22 -5.26,-13.51 -3.35,-26.85 -3.1,-28.43 z"
         id="path67" /><path
         class="st3"
         d="m 748.55,801.96 c 0.58,-0.18 -0.25,-4.09 0,-4.14 0.57,-0.1 0.02,20.97 11.3,33.6 7.69,8.62 21.68,14.18 35.25,10.79 14.99,-3.74 28.17,-18.08 26.79,-31.47 -0.88,-8.53 -8,-13.91 -22.23,-24.65 -16.49,-12.45 -28.74,-21.71 -41.36,-17.9 -6.4,1.93 -13.95,7.54 -15.51,15.74 -1.77,9.28 4.82,18.32 5.76,18.03 z"
         id="path68" /><path
         class="st3"
         d="m 740.2,1039.24 c 17.46,-9.61 39.03,-1.92 43.94,0 17.17,6.7 21.6,17.34 52.73,61.52 26.99,38.31 36.25,48.2 32.57,53.25 -4.52,6.19 -21.92,-4 -59.97,-12.92 -21.64,-5.07 -54.41,-12.51 -92.9,-9.31 -5.9,0.49 -36.09,3.24 -72.52,17.58 -37.17,14.62 -52.61,30.19 -56.87,25.85 -5.92,-6.04 16.34,-43.83 48.08,-69.26 10.76,-8.62 24.59,-19.71 45.49,-28.44 16.23,-6.78 26.18,-7.73 39.29,-18.61 11.33,-9.41 11.01,-14.61 20.16,-19.64 z"
         id="path69" /><path
         class="st3"
         d="m 1124.82,1105.23 c 2.75,8.6 9.82,14.47 27.4,22.93 37.36,17.99 52.93,14.35 57.9,25.85 6.28,14.54 -14.34,30.17 -7.24,40.55 5.45,7.96 24.11,8.3 33.6,0 13.73,-12.01 8.5,-42.27 -5.17,-60.2 -8.79,-11.53 -14.38,-9.19 -51.7,-29.14 -31.81,-17.01 -43.65,-27.21 -51.18,-22.04 -5.79,3.97 -5.9,14.89 -3.62,22.04 z"
         id="path70" /><path
         class="st3"
         d="m 965.08,1154.01 c -0.23,-3.73 -1.33,-21.94 10.34,-32.57 17.99,-16.39 51.18,-0.99 53.25,0 30.86,14.79 46.42,52.7 40.84,83.23 -1.64,8.95 -3.68,20.15 -12.41,25.33 -20.14,11.97 -58.7,-18.34 -77.54,-42.91 -12.1,-15.78 -14.08,-26.57 -14.47,-33.08 z"
         id="path71" /><path
         class="st3"
         d="m 850.9,972.14 c -4.63,5.68 -6.68,13.82 -5.03,21.13 3.53,15.6 22.79,22.42 35,23.48 12.31,1.07 32.83,-2.39 37.45,-16.1 4.03,-11.95 -6.55,-24.18 -7.71,-25.49 -14.77,-16.61 -47.13,-18.44 -59.7,-3.02 z"
         id="path72" /><path
         class="st3"
         d="m 960.19,871.51 c 15.17,3.65 23.27,8.4 32.47,12.14 12.18,4.96 21.38,6.14 39.76,8.5 24.17,3.1 29.6,0.06 58.88,3.34 13.17,1.47 32.22,3.6 32.47,7.89 0.2,3.32 -10.98,6.51 -16.69,8.1 -28.79,8.03 -40.11,1.66 -65.1,5.56 -6.91,1.08 -2.12,0.95 -48.1,15.48 -31.04,9.8 -36.5,10.9 -42.79,7.89 -17.79,-8.51 -18.57,-38.6 -18.82,-47.95 -0.2,-7.65 -0.31,-16.51 5.46,-20.94 2.48,-1.9 6.99,-3.72 22.46,0 z"
         id="path73" /><path
         class="st3"
         d="m 919.23,1019.01 c 12.14,-10.45 12.2,-20.47 18.2,-20.64 6.29,-0.17 13.16,10.63 13.66,20.64 0.46,9.19 -4.42,18.38 -12.14,22.76 -15.27,8.68 -36.95,-4.14 -36.72,-10.93 0.13,-3.84 7.18,-3.38 17.01,-11.84 z"
         id="path74" /><path
         class="st3"
         d="m 211.4,1072.74 c 6.62,-5.64 21.6,-18.42 40.03,-16.71 33.12,3.08 66.62,51.98 49.51,87.54 -12.52,26.02 -47.46,35.14 -73.63,28.73 -5.53,-1.35 -33.35,-8.95 -41.97,-33.41 -11.66,-33.11 23.51,-63.98 26.06,-66.16 z"
         id="path75" /><path
         class="st3"
         d="m 423.14,1076.09 c -1.28,9.02 13.69,17.56 27.4,25.39 17.14,9.79 27.69,15.81 34.83,11.3 9.13,-5.77 9.39,-26.68 0,-39.36 -11.34,-15.31 -33.43,-14.16 -45.62,-10.02 -4.03,1.37 -15.55,5.28 -16.61,12.7 z"
         id="path76" /><path
         class="st3"
         d="m 389.15,1115.08 c -0.77,5.15 -7.23,51.78 16.71,64.58 27.22,14.57 74.85,-24.75 70.84,-40.76 -3.94,-15.71 -56.74,-5.73 -68.83,-32.96 -6.55,-14.74 2.73,-31.64 0,-32.53 -2.95,-0.96 -15.2,18.24 -18.71,41.67 z"
         id="path77" /><path
         class="st3"
         d="m 24.29,1000.57 c 2.92,15.61 5.3,28.35 15.62,40.1 3.89,4.42 20.15,21.48 44.34,20.04 20.49,-1.22 42.78,-15.47 46.2,-35.03 5.64,-32.22 -44.22,-54.46 -47.42,-55.84 -18.52,-8 -48.94,-13.41 -58.74,0 -4.57,6.25 -3.05,14.42 0,30.74 z"
         id="path78" /><path
         class="st3"
         d="m -12.79,870.39 c 5.59,-10.34 23.47,-5.24 66.48,-6.51 45.82,-1.34 55.07,-7.99 77.21,0 19.51,7.04 39.41,21.97 37.06,30.05 -2.33,8 -25.96,7.61 -59.47,7.06 -55.04,-0.9 -55.66,-10.06 -82.86,-4.45 -10.84,2.24 -21.56,5.92 -30.06,0 -7.91,-5.51 -12.55,-18.41 -8.35,-26.16 z"
         id="path79" /><path
         class="st3"
         d="m 1075.36,211.56 c 7.15,-5.05 14.52,-5.68 19.47,-6.04 19.02,-1.4 46.87,7.27 49.36,24.2 2.12,14.39 -15.02,28.36 -27.81,33.99 -15.56,6.85 -43.54,9.64 -53.53,-7.65 -8.11,-14.02 -0.82,-35.08 12.51,-44.5 z"
         id="path80" /><path
         class="st3"
         d="m 1108.03,326.97 c 21.41,-15.78 32.21,-23.69 36.33,-25.03 1.46,-0.47 29.89,-9.3 42.92,5.56 11.86,13.52 2.57,37.06 2.09,38.25 -15.43,37.69 -79.69,53.3 -96.86,35.15 -8.48,-8.97 -7.77,-28.6 0,-40.61 2.18,-3.37 4.13,-4.93 15.52,-13.32 z"
         id="path81" /><path
         class="st3"
         d="m 1086.42,474.36 c 19.64,-18.55 40.67,-17.2 87.66,-28.5 26.46,-6.37 38.76,-11.36 52.87,-4.17 6.93,3.53 15.94,10.83 14.57,16.33 -2.22,8.89 -28.65,1.38 -69.52,12.17 -21.47,5.67 -28.42,11.5 -56.31,16.69 -11.58,2.15 -34.19,6.22 -36.85,0 -1.6,-3.74 4.63,-9.73 7.58,-12.51 z"
         id="path82" /><path
         class="st3"
         d="m 71.19,40.66 c 1.86,-3.35 4.7,-8.47 10.31,-11.32 10.78,-5.48 18.4,4.23 39.98,5.66 16.03,1.06 24.87,-3.43 27.16,0.63 1.78,3.15 -2,8.6 -10.31,18.36 C 115.3,81.04 103.78,94.57 93.07,93.22 80.72,91.66 70.77,78.21 67.92,66.06 67.17,62.84 65.04,51.72 71.19,40.66 Z"
         id="path83" /><path
         class="st1"
         d="M 73.69,52.73 C 75.07,45.55 80.04,38.96 86.9,35.93 100,30.13 118.14,38.08 121.63,51.6 125.54,66.7 110.1,84.56 94.26,82.56 81.17,80.91 71.12,66.11 73.68,52.73 Z"
         id="path84" /><path
         class="st1"
         d="m 225.45,140.78 c 4.1,-37.29 -9.88,-57.53 0,-64.19 4.36,-2.94 10.25,-1.12 13.89,0 23.06,7.11 26.54,43.35 26.69,45.07 0.56,6.73 2.6,31.16 -12.56,40.66 -8.19,5.13 -20.97,5.64 -26.54,-0.44 -4.34,-4.74 -2.52,-11.55 -1.48,-21.1 z"
         id="path85" /><path
         class="st1"
         d="m 179.46,93.31 c 13.29,-7.91 15.99,-11.84 20.16,-10.6 6.38,1.9 11.08,14.35 7.22,21.18 -7.29,12.89 -44.99,5.67 -45.58,0 -0.21,-2.05 4.59,-2.48 18.2,-10.58 z"
         id="path86" /><path
         class="st1"
         d="m 319.88,140.78 c -0.42,1.18 -6.85,20.36 4.52,29.51 10.38,8.36 29.04,3.07 35.32,-8.41 4.63,-8.48 1.18,-17.89 0,-21.1 -0.55,-1.51 -7.34,-19.28 -20.23,-19.12 -12.7,0.16 -19.07,17.57 -19.61,19.12 z"
         id="path87" /><path
         class="st1"
         d="m 448.25,53.62 c 5.18,-4.99 17.76,4.34 44.5,13.8 24.76,8.76 38.66,9.49 38.42,12.13 -0.29,3.3 -22.14,4.04 -38.42,2.94 -18.5,-1.25 -38.47,-2.6 -44.5,-15.06 -1.99,-4.11 -3.12,-10.8 0,-13.8 z"
         id="path88" /><path
         class="st1"
         d="m 446.31,211.21 c -0.34,9.37 10.17,18.32 20,21.05 15.67,4.36 33.51,-5.98 37.27,-21.05 1.67,-6.71 1.26,-17.18 -5.22,-22.53 -14.07,-11.62 -51.42,5.28 -52.05,22.53 z"
         id="path89" /><path
         class="st1"
         d="m 643.76,148.02 c -3.92,4.87 -4.23,12.51 0,16.86 5.2,5.35 15.6,4.04 19.92,-2.56 3.7,-5.66 2.43,-14.43 -3.69,-18 -5.46,-3.19 -12.53,-0.9 -16.23,3.7 z"
         id="path90" /><path
         class="st1"
         d="m 714.59,247.02 c 3,-10.2 34.03,-15.89 45,-3.69 6.52,7.25 0.72,14.98 0,42.39 -0.88,33.77 7.31,45.29 -2.21,57.31 -6.54,8.25 -18.41,12.93 -23.26,9.49 -3.46,-2.45 -2.51,-8.45 0,-26.56 5.3,-38.2 5.14,-40.6 4.48,-43.53 -4.9,-21.65 -26.67,-26.35 -24.01,-35.41 z"
         id="path91" /><path
         class="st1"
         d="m 567.03,356.12 c -8.1,14.2 -12.44,17.93 -11.34,24.78 1.33,8.24 9.28,13.14 11.34,14.4 17,10.48 43.76,1.85 44.97,-6.77 1.23,-8.75 -24.73,-11.5 -31.04,-32.42 -3.91,-12.97 2.07,-25.12 0,-25.73 -1.83,-0.54 -4.68,9.53 -13.93,25.73 z"
         id="path92" /><path
         class="st1"
         d="m 446.3,356.12 c -17,16.23 -25.53,17.17 -26.09,24.6 -0.61,8.16 8.96,16.24 16.97,19.41 17.6,6.95 44.26,-3.35 47.95,-22 3.29,-16.65 -12.51,-35.89 -23.61,-35.09 -4.42,0.32 -5.3,3.61 -15.23,13.09 z"
         id="path93" /><path
         class="st1"
         d="m 36.91,291.1 c 9.55,-11.66 14.36,-17.51 16.43,-18.33 12.21,-4.84 21.08,14.16 44.2,23.39 23.62,9.42 32.56,-3.15 80.25,0 20.85,1.38 44.14,5.43 44.03,8.27 -0.16,4.33 -54.55,5.52 -60.58,5.64 -70.74,1.43 -73.25,-9.02 -109.8,-2.27 -7.14,1.32 -23.08,4.68 -25.28,0 -0.85,-1.8 0.59,-4.28 10.74,-16.69 z"
         id="path94" /><path
         class="st1"
         d="m 292.1,288.72 c 10.85,-5.99 18.81,-11.49 28.27,-8.94 6.98,1.88 14.12,7.97 13.34,12.75 -0.59,3.59 -5.7,6.81 -41.6,12.7 -28.56,4.69 -47.24,7.75 -47.97,4.96 -0.73,-2.79 18.21,-5.03 47.97,-21.48 z"
         id="path95" /><path
         class="st1"
         d="m 640.49,612 c 2.51,-13.86 3.76,-20.79 8.21,-23.63 4.6,-2.93 10.49,-0.86 35.21,11.81 34.01,17.44 36.67,20.61 38.72,24.12 6.29,10.79 9.46,29.26 -1.37,43.12 -9.39,12.02 -25.17,15.29 -37.51,12.66 -2.87,-0.61 -19.64,-4.54 -24.1,-17.11 -5.1,-14.38 9.95,-28.65 4.45,-34.57 -4.84,-5.21 -18.53,3.63 -23.63,-2.4 -2.04,-2.41 -1.38,-6.31 0.01,-14.02 z"
         id="path96" /><path
         class="st1"
         d="m 1105.16,474.65 c 7.45,-6.2 8.15,-9.28 12.93,-10.48 6.32,-1.59 14.22,1.49 14.82,5.24 0.62,3.9 -6.75,7.96 -10.35,9.94 -13.93,7.68 -30.57,7.87 -31.28,5.17 -0.41,-1.56 4.95,-2.45 13.87,-9.88 z"
         id="path97" /><path
         class="st1"
         d="m 1104.5,358.15 c 3.35,-22.83 33.41,-33.42 39.86,-35.69 9.14,-3.22 28.04,-9.87 34.88,-2.1 7.8,8.87 -2.31,33.97 -19.13,47.03 -16.88,13.11 -44.38,17.06 -53.09,5.88 -3.99,-5.11 -2.97,-12.01 -2.52,-15.12 z"
         id="path98" /><path
         class="st1"
         d="m 1080.22,229.71 c 7.6,-7.05 11.4,-10.57 16.3,-11.19 8.56,-1.09 19.05,4.71 20.8,12.44 2.37,10.47 -11.79,22.42 -24.8,23.8 -10.36,1.1 -22.65,-4.21 -23.44,-10.72 -0.44,-3.58 3.42,-7.16 11.15,-14.33 z"
         id="path99" /><path
         class="st1"
         d="m 509.44,962.48 c -0.1,-4.59 1.81,-11.09 5.24,-11.88 5.65,-1.3 16.48,12.65 13.11,18.51 -2.32,4.03 -11.89,5.14 -16.05,0.77 -2.2,-2.31 -2.27,-5.52 -2.31,-7.4 z"
         id="path100" /><path
         class="st1"
         d="m 586.38,918.25 c 0.87,-0.07 1.56,0.36 1.74,0.47 4.82,2.91 25.75,3.6 40.85,-0.47 28.2,-7.59 34.59,-31.36 45.69,-27.88 9.84,3.09 12.49,24.19 10.84,37.95 -2.18,18.19 -14.2,43 -38.21,48.89 -21.03,5.16 -38.37,-7.37 -47.24,-13.78 -6.17,-4.46 -21.1,-15.25 -20.65,-29.2 0.19,-5.74 3.1,-15.66 6.97,-15.98 z"
         id="path101" /><path
         class="st1"
         d="m 759.43,804.48 c -6.75,-14.34 -5.89,-18.53 -4.67,-21.03 1.64,-3.36 5.04,-5.93 8.57,-6.82 11.84,-2.97 27.16,12.48 32.91,27.85 1.41,3.78 6.97,18.62 0,24.92 -5.06,4.58 -14.31,2.48 -19.47,0 -7.23,-3.47 -10.6,-10.62 -17.33,-24.92 z"
         id="path102" /><path
         class="st1"
         d="m 943.64,901.41 c -0.26,-1.93 -2.36,-19.06 5.25,-22.99 9.53,-4.92 20.27,18.1 47.72,22.99 5.1,0.91 3.48,-0.11 36.48,-1.25 32.04,-1.11 33.62,-0.15 33.73,0.5 0.36,2.06 -13.2,5.2 -40.23,13.49 -45.62,14 -55.65,19.99 -66.96,13.49 -13.28,-7.63 -15.87,-25.31 -15.99,-26.23 z"
         id="path103" /><path
         class="st1"
         d="m 849.75,992.54 c -1.28,-6.27 7.7,-13.19 12.54,-15.9 9.25,-5.18 18.65,-3.54 22.18,-2.69 13.53,3.27 26.33,15.81 23.97,22.9 -2.72,8.16 -24.72,6.92 -29.34,6.66 -3.64,-0.2 -27.42,-1.54 -29.34,-10.98 z"
         id="path104" /><path
         class="st1"
         d="m 913.81,1032.42 c 10.59,0.06 15.61,-24.89 22.85,-24.28 3.65,0.31 6.48,6.97 6.52,12.14 0.05,5.65 -3.23,10.76 -7.42,13.26 -9.49,5.68 -24.68,-1.4 -24.64,-1.57 0.01,-0.05 1.22,0.44 2.69,0.45 z"
         id="path105" /><path
         class="st1"
         d="m 1003.79,1183.38 c -1.31,-0.89 -1.1,-0.67 -2.08,-1.35 -11.78,-8.22 -22.3,-25.71 -16.61,-38.24 5.27,-11.59 21.92,-13.45 23.14,-13.57 23.7,-2.32 40.42,22.52 43.16,26.58 5.61,8.34 17.2,25.55 9.12,40.38 -6.14,11.27 -22.08,18.33 -31.37,14.02 -8.6,-4 -8.34,-16.3 -25.36,-27.81 z"
         id="path106" /><path
         class="st1"
         d="m 1134.33,1108 c -0.69,-4 1.57,-9.03 5.05,-11.05 7.3,-4.24 16.07,7.04 38.82,16.98 18.05,7.89 21.66,4.79 34.4,13 6.64,4.28 16.41,10.76 21.78,23.04 0.53,1.22 10.26,24.27 -1.58,35.35 -5.59,5.23 -15.53,7.38 -18.94,3.79 -4.65,-4.91 6.79,-16.44 3.47,-35.1 -0.65,-3.67 -1.59,-8.57 -5.37,-12.76 -5.06,-5.62 -11.55,-5.92 -22.41,-7.69 0,0 -27.2,-4.43 -48.29,-17.36 -2.3,-1.41 -6.22,-3.99 -6.94,-8.21 z"
         id="path107" /><path
         class="st1"
         d="m 647.99,1121.32 c 16.09,-13.51 32.81,-27.54 59.52,-40.45 27.42,-13.24 41.13,-19.87 58.62,-17.62 28,3.59 52.64,26.86 49.29,36.84 -2.54,7.57 -19.69,3.1 -65.3,9.4 -13.04,1.8 -36.88,5.19 -64.14,13.43 -36.47,11.02 -57.51,24.22 -59.61,20.82 -1.74,-2.81 11.43,-13.87 21.63,-22.43 z"
         id="path108" /><path
         class="st1"
         d="m 437.76,1077.46 c 0.26,-5.92 19.84,-15.04 32.7,-7.11 9.64,5.95 13.64,20.35 9.57,24.48 -3.94,4.01 -15.55,-1.53 -27.71,-7.33 -9.75,-4.65 -14.69,-7.01 -14.56,-10.05 z"
         id="path109" /><path
         class="st1"
         d="m 403.47,1138.05 c 7.09,-11.77 30,-6.02 31.47,-5.64 7.97,2.1 22.43,8.51 22.74,17.38 0.41,11.68 -23.68,28.33 -40.73,20.2 -11.62,-5.55 -19.29,-22.28 -13.48,-31.94 z"
         id="path110" /><path
         class="st1"
         d="m 212.32,1096.2 c -2.74,5.67 -6.3,13.04 -4.53,21.65 3,14.54 19.6,24.6 34.59,25.36 15.94,0.81 36.51,-8.55 40.39,-28.13 4.02,-20.26 -12.63,-37.35 -27.72,-41.7 -8.38,-2.42 -15.68,-0.74 -18.31,0 -15.48,4.33 -22.35,18.53 -24.42,22.82 z"
         id="path111" /><path
         class="st1"
         d="m 64.37,1017.03 c 30.14,14.4 34.25,19.12 36.17,17.21 6.09,-6.09 -27.63,-61.88 -47.44,-57.04 -8.46,2.07 -15,15.35 -12.21,24.16 1.94,6.12 7.75,8.15 23.48,15.67 z"
         id="path112" /><path
         class="st1"
         d="m 88.76,882.83 c -0.83,-4.81 8.58,-11.33 17.28,-13.21 13.86,-2.99 25.19,5.95 27.78,8.13 0.58,0.49 12.8,10.95 10.16,16.19 -3.17,6.3 -25.41,0.25 -40.99,-3.99 -11.23,-3.06 -13.84,-4.87 -14.23,-7.12 z"
         id="path113" /><path
         class="st1"
         d="m 283.38,876.32 c -6.63,11.93 -13.13,35.99 0,48.36 13.31,12.54 36.6,3.46 45.47,0 12.96,-5.05 26.1,-14.74 24.52,-19.8 -1.58,-5.06 -16.14,-0.02 -22.92,-8.32 -7.57,-9.27 4.26,-23.26 -3.19,-32.67 -5.59,-7.06 -18.55,-7.13 -27.13,-3.87 -9.56,3.64 -14.13,11.6 -16.75,16.3 z"
         id="path114" /><path
         class="st1"
         d="m 387.79,860.02 c 5.85,9.65 5.28,16.3 7.19,16.3 3.08,0 10.38,-17.3 2.5,-25.94 -5.63,-6.18 -17.17,-5.91 -18.52,-3 -0.96,2.08 3.81,4.36 8.83,12.64 z"
         id="path115" /><path
         class="st1"
         d="m 518.38,792.78 c -1.3,-5.38 20.88,-14.12 23.54,-15.17 9.41,-3.71 16.34,-6.34 20.67,-2.82 3.56,2.9 4.5,9.26 2.35,13.54 -3.05,6.09 -11.76,6.79 -21.71,7.59 -2.77,0.22 -23.64,1.89 -24.85,-3.14 z"
         id="path116" /><path
         class="st1"
         d="m 296.19,602.75 c -6.95,-6.77 -1.27,-31.57 15.3,-39.75 17.32,-8.54 41.33,3.63 42.07,13.39 0.65,8.53 -16.42,16.29 -25.82,20.56 -9.87,4.49 -25.58,11.62 -31.55,5.8 z"
         id="path117" /><path
         class="st1"
         d="m 35.64,501.97 c -8.21,-14.62 -4.64,-36.35 4.27,-39.84 12.2,-4.79 28.16,27.08 43.12,22.47 13.28,-4.09 7.31,-31.22 22.47,-39.2 16.23,-8.55 50.38,8.17 60.65,36.33 4.69,12.86 6.62,34.18 -5.26,46.57 -14.52,15.15 -40.73,7.67 -88.44,-5.94 -24.46,-6.98 -32.27,-12.31 -36.81,-20.4 z"
         id="path118" /><path
         class="st1"
         d="m 19.86,688.74 c 17.74,-6.13 20.05,-6.14 22.47,-5.53 10.67,2.71 19.46,16.57 16.25,23.69 -4.07,9.03 -26.98,6.12 -38.72,2.85 -7.16,-1.99 -20.3,-6.93 -19.9,-11.77 0.13,-1.6 1.72,-2.97 19.9,-9.25 z"
         id="path119" /><path
         class="st1"
         d="m 112.3,680.14 c 1.09,6.54 6.41,12.7 13.7,14.11 6.36,1.23 14.71,-1.07 17.21,-7.06 3.95,-9.43 -9.38,-21.37 -12.75,-19.97 -2.65,1.11 -0.22,10.91 -2.36,11.47 -2.55,0.68 -6.28,-13.29 -10.71,-12.94 -3.19,0.25 -6.18,7.86 -5.09,14.37 z"
         id="path120" /></g><g
       id="g2"
       transform="translate(1403.5866,22.859712)"><circle
         style="fill:#ffffff;fill-opacity:1;stroke-width:0.252634"
         id="path1"
         cx="-408.05688"
         cy="759.47131"
         r="171.08334" /><circle
         style="fill:#673ab7;fill-opacity:1;stroke-width:0.216787"
         id="path1-9"
         cx="-406.87915"
         cy="761.11096"
         r="146.808" /><path
         style="fill:#ffffff;fill-opacity:1;stroke-width:0.264583"
         d="m -540.99325,865.82042 122.53268,158.36768 151.43187,-166.45947 -71.67005,43.92682 -48.55067,11.55967 -60.11037,4.62388 -25.4313,-11.5597 -39.30293,-41.61485 z"
         id="path2"
         sodipodi:nodetypes="ccccccccc" /><text
         xml:space="preserve"
         style="font-size:282.222px;text-align:start;writing-mode:lr-tb;direction:ltr;text-anchor:start;fill:#fffefe;fill-opacity:1;stroke-width:0.264583"
         x="-493.59851"
         y="855.41669"
         id="text3"><tspan
           sodipodi:role="line"
           id="tspan3"
           style="font-style:normal;font-variant:normal;font-weight:bold;font-stretch:normal;font-size:282.222px;font-family:sans-serif;-inkscape-font-specification:'sans-serif Bold';fill:#fffefe;fill-opacity:1;stroke-width:0.264583"
           x="-493.59851"
           y="855.41669">L</tspan></text></g></g></svg>
